<?xml version="1.0" encoding="utf-8"?>
<!-- Generator: Adobe Illustrator 19.1.0, SVG Export Plug-In . SVG Version: 6.00 Build 0)  -->
<svg version="1.1" xmlns="http://www.w3.org/2000/svg" xmlns:xlink="http://www.w3.org/1999/xlink" x="0px" y="0px"
	 width="175.833px" height="27.019px" viewBox="0 0 175.833 27.019" style="enable-background:new 0 0 175.833 27.019;"
	 xml:space="preserve">
<style type="text/css">
	.st0{fill:#004899;}
</style>
<g id="LOGOs__x2F__ICONs">
	<g>
		<g>
			<path class="st0" d="M0.055,26.948c0.385-0.197,0.558-0.666,0.558-1.066v-9.824c0-0.416-0.173-0.871-0.558-1.079h4.682
				c2.089,0,4.125,0.855,4.125,3.226c0,1.256-1.096,2.249-2.278,2.471c1.702-0.016,3.347,1.024,3.347,2.903
				c0,2.684-2.815,3.369-4.796,3.369H0.055z M3.845,16.01c-0.218,0-0.368,0-0.768,0.048v4.19h0.474c1.435,0,2.822-0.444,2.822-2.106
				C6.374,16.491,5.265,16.01,3.845,16.01z M4.144,21.326c-0.342,0-0.65,0-1.067,0.031v4.424c0.52,0.101,1.081,0.134,1.598,0.134
				c1.201,0,2.423-0.535,2.423-2.371C7.099,21.733,5.654,21.326,4.144,21.326z M14.563,16.01c-0.214,0-0.402,0.035-0.614,0.065
				v4.139c0.196,0.014,0.373,0.034,0.568,0.034c1.347,0,2.343-0.744,2.343-2.208C16.859,16.543,15.88,16.01,14.563,16.01z
				 M20.597,27.018c-0.459,0-0.965,0.017-1.403-0.113c-0.815-0.241-1.94-2.077-2.387-2.797c-0.696-1.171-1.3-2.783-2.859-2.801
				v4.574c0,0.4,0.182,0.885,0.568,1.066h-3.595c0.378-0.197,0.558-0.646,0.558-1.066v-9.824c0-0.416-0.18-0.871-0.558-1.079h4.327
				c1.883,0,4.239,0.723,4.239,2.984c0,1.898-1.571,2.871-3.321,2.871c2.492,0.014,3.955,5.859,6.706,5.876
				C22.135,26.929,21.366,27.018,20.597,27.018z M23.053,26.948c0.297-0.135,0.608-0.528,0.608-1.066v-9.824
				c0-0.545-0.311-0.931-0.608-1.079h3.683c-0.316,0.148-0.604,0.534-0.604,1.079v9.824c0,0.538,0.288,0.93,0.604,1.066H23.053z
				 M31.046,26.948c0.395-0.18,0.587-0.646,0.587-1.066v-9.53h-2.645c-0.61,0-1.338,0.074-1.862,0.386l0.822-1.759h8.774
				c0.711,0,1.437-0.016,2.127-0.162c-0.334,0.901-1.329,1.568-1.902,1.568c-0.696-0.016-1.849-0.062-2.842-0.062v9.559
				c0,0.419,0.207,0.885,0.595,1.066H31.046z M39.288,26.948c0.294-0.135,0.603-0.528,0.603-1.066v-9.824
				c0-0.545-0.309-0.931-0.603-1.079h3.683c-0.313,0.148-0.613,0.534-0.613,1.079v9.824c0,0.538,0.299,0.93,0.613,1.066H39.288z
				 M50.142,24.24c0-2.279-5.369-2.794-5.369-6.433c0-2.253,2.143-2.991,4.027-2.991c0.841,0,2.058,0.117,2.826,0.47l0.133,2.238
				c-0.472-0.988-1.655-1.704-2.754-1.704c-0.868,0-1.779,0.43-1.779,1.423c0,2.364,5.461,2.942,5.461,6.388
				c0,2.501-2.186,3.538-4.392,3.538c-1.154,0-2.724-0.222-3.697-0.888c-0.059-0.4-0.086-0.819-0.086-1.228
				c0-0.489,0.043-0.979,0.115-1.461c0.608,1.384,1.864,2.467,3.434,2.467C49.255,26.06,50.142,25.539,50.142,24.24z M61.647,26.948
				c0.26-0.117,0.538-0.528,0.538-1.066v-4.454c-0.641-0.072-1.535-0.103-2.54-0.103c-1.019,0-1.921,0.031-2.578,0.103v4.454
				c0,0.538,0.27,0.93,0.534,1.066h-3.547c0.263-0.117,0.543-0.528,0.543-1.066v-9.824c0-0.545-0.28-0.947-0.543-1.079h3.547
				c-0.264,0.132-0.534,0.534-0.534,1.079v4.024c0.657,0.069,1.543,0.103,2.578,0.103c1.004,0,1.899-0.044,2.54-0.103v-4.024
				c0-0.545-0.278-0.947-0.538-1.079h3.541c-0.265,0.132-0.528,0.534-0.528,1.079v9.824c0,0.538,0.263,0.93,0.528,1.066H61.647z"/>
			<path class="st0" d="M78.334,26.948c0.115-0.117,0.218-0.205,0.218-0.416c0-0.072-0.027-0.19-0.115-0.414
				c0,0-0.983-2.675-1.098-2.986c-0.739-0.091-1.508-0.091-2.262-0.091c-0.716,0-1.441,0.017-2.149,0.091
				c-0.101,0.268-1.154,2.929-1.154,2.929c-0.142,0.36-0.191,0.482-0.191,0.561c0,0.178,0.153,0.264,0.282,0.327h-2.409
				c0.356-0.18,0.664-0.551,0.815-0.921l3.96-10.22c0.018-0.043,0.025-0.089,0.025-0.147c0-0.281-0.187-0.549-0.439-0.681h3.106
				l4.027,11.038c0.164,0.443,0.515,0.767,0.81,0.931H78.334z M75.207,17.256l-1.815,4.661c0.541,0.059,1.102,0.073,1.65,0.073
				c0.627,0,1.248,0,1.858-0.073L75.207,17.256z M82.373,26.948c0.297-0.135,0.604-0.528,0.604-1.066v-9.824
				c0-0.545-0.307-0.931-0.604-1.079h3.681c-0.313,0.148-0.604,0.534-0.604,1.079v9.824c0,0.538,0.291,0.93,0.604,1.066H82.373z
				 M91.651,16.01c-0.199,0-0.39,0.035-0.596,0.065v4.139c0.192,0.014,0.367,0.034,0.554,0.034c1.351,0,2.345-0.744,2.345-2.208
				C93.953,16.543,92.97,16.01,91.651,16.01z M97.987,27.018c-0.459,0-0.954,0.017-1.402-0.113
				c-0.816-0.241-1.939-2.077-2.386-2.797c-0.693-1.171-1.595-2.801-3.144-2.801v4.574c0,0.4,0.174,0.885,0.554,1.066h-3.591
				c0.386-0.197,0.566-0.646,0.566-1.066v-9.824c0-0.416-0.179-0.871-0.566-1.079h4.337c1.878,0,4.23,0.723,4.23,2.984
				c0,1.898-1.717,2.871-3.014,2.871c2.583,0.149,4.139,5.876,6.702,5.876C99.529,26.929,98.761,27.018,97.987,27.018z
				 M112.919,16.147l-3.637,10.8c-0.3,0-0.595-0.103-0.762-0.22c-0.359-0.347-0.924-1.794-1.129-2.327l-1.643-4.153l-2.368,6.7
				h-1.127l-4.07-10.827c-0.176-0.461-0.474-0.904-0.918-1.142h3.537c-0.148,0.116-0.251,0.247-0.251,0.499
				c0,0.121,0.06,0.287,0.103,0.416l2.651,7.163l2.822-8.079l3.109,7.788l2.355-7.05c0.058-0.191,0.093-0.263,0.093-0.383
				c0-0.147-0.064-0.24-0.212-0.356h2.342C113.382,15.207,113.069,15.702,112.919,16.147z M117.268,17.256l-1.815,4.661
				c0.547,0.059,1.108,0.073,1.654,0.073c0.621,0,1.249,0,1.855-0.073L117.268,17.256z M120.391,26.948
				c0.124-0.117,0.218-0.205,0.218-0.416c0-0.072-0.036-0.19-0.108-0.414c0,0-0.977-2.675-1.095-2.986
				c-0.745-0.091-1.513-0.091-2.267-0.091c-0.707,0-1.434,0.017-2.147,0.091c-0.102,0.268-1.149,2.929-1.149,2.929
				c-0.151,0.36-0.192,0.482-0.192,0.561c0,0.178,0.146,0.264,0.275,0.327h-2.409c0.357-0.18,0.664-0.551,0.813-0.921l3.973-10.22
				c0.011-0.043,0.023-0.089,0.023-0.147c0-0.281-0.188-0.549-0.446-0.681h3.108l4.026,11.038c0.166,0.443,0.522,0.767,0.815,0.931
				H120.391z M131.206,16.236l-2.834,4.972v4.674c0,0.381,0.156,0.885,0.535,1.066h-3.527c0.36-0.197,0.526-0.698,0.526-1.066v-4.69
				l-2.464-3.948c-0.22-0.369-1.249-2.09-2.501-2.09c0.34-0.129,1.376-0.327,2.072-0.327c1.159,0,1.734,0.106,2.444,1.218
				l2.28,3.614c0.191-0.355,1.997-3.494,1.997-3.494c0.218-0.382,0.367-0.652,0.367-0.786c0-0.172-0.074-0.284-0.249-0.4h2.541
				C131.893,15.217,131.479,15.764,131.206,16.236z M137.843,24.24c0-2.279-5.37-2.794-5.37-6.433c0-2.253,2.137-2.991,4.022-2.991
				c0.844,0,2.053,0.117,2.826,0.47l0.133,2.238c-0.478-0.988-1.656-1.704-2.756-1.704c-0.87,0-1.773,0.43-1.773,1.423
				c0,2.364,5.46,2.942,5.46,6.388c0,2.501-2.171,3.538-4.392,3.538c-1.154,0-2.727-0.222-3.702-0.888
				c-0.063-0.4-0.094-0.819-0.094-1.228c0-0.489,0.046-0.979,0.12-1.461c0.607,1.384,1.869,2.467,3.438,2.467
				C136.953,26.06,137.843,25.539,137.843,24.24z"/>
		</g>
	</g>
	<g>
		<g>
			<defs>
				<path id="SVGID_1_" d="M170.881,6.601c-2.012,2-6.372,3.717-8.518,4.521c-2.931,1.101-4.231,1.49-5.871,2.024
					c-1.856,0.602-5.569,1.726-5.569,1.726c7.691,2.296,13.11,2.988,13.11,2.988s2.526-0.78,6.526-2.919
					c2.166-1.101,3.231-1.842,3.994-2.551c0.28-0.254,1.007-1.009,1.188-1.977c0.011-0.071,0.046-0.255,0.046-0.437
					c0,0,0-0.129-0.012-0.24c-0.003-0.129-0.027-0.214-0.027-0.214s-0.042-0.229-0.099-0.39c-0.059-0.161-0.307-0.657-0.708-0.98
					c-0.269-0.218-0.731-0.76-2.408-1.35c-0.571-0.198-1.493-0.381-1.493-0.381L170.881,6.601z"/>
			</defs>
			<linearGradient id="SVGID_2_" gradientUnits="userSpaceOnUse" x1="168.3173" y1="4.1721" x2="159.3357" y2="19.7288">
				<stop  offset="0" style="stop-color:#E5EDF5"/>
				<stop  offset="0.0703" style="stop-color:#BFD1E6"/>
				<stop  offset="0.1814" style="stop-color:#89AAD0"/>
				<stop  offset="0.2774" style="stop-color:#618EC0"/>
				<stop  offset="0.3534" style="stop-color:#497CB6"/>
				<stop  offset="0.4" style="stop-color:#4076B3"/>
				<stop  offset="0.9" style="stop-color:#004899"/>
			</linearGradient>
			<use xlink:href="#SVGID_1_"  style="overflow:visible;fill:url(#SVGID_2_);"/>
			<clipPath id="SVGID_3_">
				<use xlink:href="#SVGID_1_"  style="overflow:visible;"/>
			</clipPath>
		</g>
		<g>
			<defs>
				<path id="SVGID_4_" d="M175.788,9.924c0,0-0.012-0.214-0.064-0.396c-0.041-0.161-0.113-0.316-0.221-0.478
					c-0.131-0.193-0.307-0.419-0.569-0.67c-0.199-0.186-0.415-0.351-0.674-0.526c-1.05-0.687-2.404-1.075-3.603-1.239
					c-1.856-0.247-3.987-0.204-4.189-0.21c-0.685-0.01-5.112,0.027-6.25,0.047c-5.054,0.104-11.24,0.118-12.861,0.118
					c-16.729,0.076-24.012-0.284-32.117-1.909c-6.895-1.37-10.721-2.671-10.721-2.671c6.081-0.21,41.567-1.683,48.04-1.855
					c4.239-0.119,7.247-0.145,9.656-0.006c1.235,0.069,2.384,0.174,3.826,0.419c1.294,0.221,2.469,0.597,3.154,0.851
					c1.442,0.534,2.657,1.306,3.257,2.097c0,0,0.178,0.182,0.419,0.505c0.271,0.376,0.584,0.838,0.69,1.01
					c0.877,1.329,1.294,2.165,1.439,2.455c0.157,0.306,0.295,0.624,0.429,0.935c0.132,0.308,0.186,0.496,0.229,0.626
					c0.091,0.327,0.115,0.625,0.118,0.691L175.788,9.924z"/>
			</defs>
			<use xlink:href="#SVGID_4_"  style="overflow:visible;fill:#E3051A;"/>
			<clipPath id="SVGID_5_">
				<use xlink:href="#SVGID_4_"  style="overflow:visible;"/>
			</clipPath>
		</g>
	</g>
</g>
<g id="Layer_3">
</g>
</svg>
